<?xml version="1.0" standalone="no"?>
<!DOCTYPE svg PUBLIC "-//W3C//DTD SVG 20010904//EN"
 "http://www.w3.org/TR/2001/REC-SVG-20010904/DTD/svg10.dtd">
<svg version="1.0" xmlns="http://www.w3.org/2000/svg"
 width="576.000000pt" height="576.000000pt" viewBox="0 0 576.000000 576.000000"
 preserveAspectRatio="xMidYMid meet" color="">

<g transform="translate(0.000000,576.000000) scale(0.100000,-0.100000)"
fill="#ffff" stroke="none">
<path d="M3691 5304 c-302 -389 -357 -455 -375 -451 -155 37 -568 45 -736 14
-454 -83 -824 -276 -1133 -590 -471 -479 -669 -1150 -536 -1810 118 -588 524
-1118 1061 -1388 53 -27 99 -52 102 -57 5 -8 -78 -197 -360 -824 -46 -103 -84
-190 -84 -193 0 -3 6 -5 14 -5 14 0 16 3 453 553 181 227 291 357 302 357 10
0 60 -9 112 -20 675 -140 1417 95 1893 601 554 588 704 1435 386 2174 -104
241 -232 427 -430 625 -199 199 -392 331 -642 440 l-96 42 33 77 c18 42 66
150 107 241 202 444 298 659 298 664 0 3 -3 6 -8 6 -4 0 -166 -205 -361 -456z
m-538 -640 c15 -4 27 -9 27 -13 0 -3 -51 -72 -113 -151 -62 -80 -282 -363
-489 -630 -207 -267 -511 -658 -676 -870 -164 -212 -297 -388 -295 -392 2 -5
267 -8 589 -8 389 0 584 -3 584 -10 0 -13 -58 -144 -505 -1140 -53 -118 -100
-219 -105 -224 -13 -13 -81 17 -195 86 -141 85 -243 167 -375 304 -515 532
-649 1322 -341 2008 96 211 269 443 451 602 278 243 626 398 995 443 81 10
397 6 448 -5z m572 -184 c187 -94 304 -179 460 -335 148 -148 237 -268 324
-435 153 -294 219 -581 208 -900 -14 -393 -134 -732 -371 -1045 -390 -514
-1054 -788 -1686 -694 -104 15 -121 20 -118 33 3 11 192 250 1257 1588 208
263 389 491 401 508 l21 30 -639 0 c-351 0 -641 3 -644 6 -7 6 24 78 174 409
58 127 174 384 259 573 l154 343 30 -5 c17 -3 93 -37 170 -76z"/>
</g>
</svg>
